<svg width="952" height="177" viewBox="0 0 952 177" fill="none" xmlns="http://www.w3.org/2000/svg">
<g clip-path="url(#clip0_25_69)">
<path d="M64.8348 107.34C66.3708 107.34 67.5228 107.692 68.2908 108.396C69.0588 109.1 69.4428 110.092 69.4428 111.372C69.4428 114.124 67.9068 115.5 64.8348 115.5H32.7708C29.6348 115.5 28.0668 114.124 28.0668 111.372C28.0668 110.092 28.4508 109.1 29.2188 108.396C30.0508 107.692 31.2348 107.34 32.7708 107.34H43.8108V59.436L33.9228 65.676C33.2828 66.06 32.6428 66.252 32.0028 66.252C30.9148 66.252 29.9548 65.772 29.1228 64.812C28.3548 63.852 27.9708 62.764 27.9708 61.548C27.9708 60.076 28.6108 58.924 29.8907 58.092L44.6748 48.684C46.1468 47.788 47.5548 47.34 48.8988 47.34C50.3068 47.34 51.4588 47.788 52.3548 48.684C53.2508 49.58 53.6988 50.796 53.6988 52.332V107.34H64.8348Z" fill="#F9BDBD" fill-opacity="0.25"/>
<path d="M45.3918 168.216C43.7598 168.216 42.3278 167.864 41.0958 167.16C39.8798 166.456 38.9438 165.448 38.2878 164.136C37.6318 162.824 37.3038 161.288 37.3038 159.528C37.3038 157.768 37.6318 156.24 38.2878 154.944C38.9438 153.632 39.8798 152.624 41.0958 151.92C42.3278 151.216 43.7598 150.864 45.3918 150.864C46.4478 150.864 47.4398 151.024 48.3678 151.344C49.2958 151.648 50.1198 152.096 50.8398 152.688C51.0478 152.848 51.1918 153.016 51.2718 153.192C51.3518 153.368 51.3918 153.584 51.3918 153.84C51.3918 154.192 51.2958 154.488 51.1038 154.728C50.9118 154.968 50.6798 155.088 50.4078 155.088C50.0878 155.088 49.7598 154.976 49.4238 154.752C48.7358 154.24 48.0958 153.888 47.5038 153.696C46.9118 153.488 46.2558 153.384 45.5358 153.384C43.8718 153.384 42.6078 153.904 41.7438 154.944C40.8958 155.984 40.4718 157.512 40.4718 159.528C40.4718 161.56 40.8958 163.096 41.7438 164.136C42.6078 165.176 43.8718 165.696 45.5358 165.696C46.2238 165.696 46.8558 165.592 47.4318 165.384C48.0238 165.176 48.6878 164.824 49.4238 164.328C49.5838 164.232 49.7438 164.152 49.9038 164.088C50.0638 164.024 50.2318 163.992 50.4078 163.992C50.6798 163.992 50.9118 164.112 51.1038 164.352C51.2958 164.592 51.3918 164.888 51.3918 165.24C51.3918 165.48 51.3518 165.696 51.2718 165.888C51.1918 166.064 51.0478 166.232 50.8398 166.392C50.1198 166.984 49.2958 167.44 48.3678 167.76C47.4398 168.064 46.4478 168.216 45.3918 168.216ZM60.6974 155.976C63.4494 155.976 64.8254 157.584 64.8254 160.8V166.704C64.8254 167.152 64.6894 167.504 64.4174 167.76C64.1614 168.016 63.8014 168.144 63.3374 168.144C62.8734 168.144 62.5054 168.016 62.2334 167.76C61.9614 167.504 61.8254 167.152 61.8254 166.704V160.8C61.8254 159.952 61.6494 159.336 61.2974 158.952C60.9614 158.552 60.4254 158.352 59.6894 158.352C58.8254 158.352 58.1294 158.624 57.6014 159.168C57.0894 159.712 56.8334 160.44 56.8334 161.352V166.704C56.8334 167.152 56.6974 167.504 56.4254 167.76C56.1534 168.016 55.7854 168.144 55.3214 168.144C54.8574 168.144 54.4894 168.016 54.2174 167.76C53.9614 167.504 53.8334 167.152 53.8334 166.704V152.352C53.8334 151.936 53.9694 151.6 54.2414 151.344C54.5294 151.088 54.8974 150.96 55.3454 150.96C55.7934 150.96 56.1534 151.08 56.4254 151.32C56.6974 151.56 56.8334 151.888 56.8334 152.304V157.896C57.2334 157.272 57.7614 156.8 58.4174 156.48C59.0894 156.144 59.8494 155.976 60.6974 155.976ZM73.2245 168.192C72.0245 168.192 70.9685 167.944 70.0565 167.448C69.1605 166.952 68.4645 166.24 67.9685 165.312C67.4725 164.384 67.2245 163.304 67.2245 162.072C67.2245 160.84 67.4725 159.768 67.9685 158.856C68.4645 157.928 69.1605 157.216 70.0565 156.72C70.9685 156.224 72.0245 155.976 73.2245 155.976C74.4245 155.976 75.4725 156.224 76.3685 156.72C77.2805 157.216 77.9765 157.928 78.4565 158.856C78.9525 159.768 79.2005 160.84 79.2005 162.072C79.2005 163.304 78.9525 164.384 78.4565 165.312C77.9765 166.24 77.2805 166.952 76.3685 167.448C75.4725 167.944 74.4245 168.192 73.2245 168.192ZM73.2005 165.864C74.1765 165.864 74.9205 165.544 75.4325 164.904C75.9445 164.264 76.2005 163.32 76.2005 162.072C76.2005 160.84 75.9445 159.904 75.4325 159.264C74.9205 158.608 74.1845 158.28 73.2245 158.28C72.2645 158.28 71.5205 158.608 70.9925 159.264C70.4805 159.904 70.2245 160.84 70.2245 162.072C70.2245 163.32 70.4805 164.264 70.9925 164.904C71.5045 165.544 72.2405 165.864 73.2005 165.864ZM87.0292 168.192C85.8292 168.192 84.7732 167.944 83.8612 167.448C82.9652 166.952 82.2692 166.24 81.7732 165.312C81.2772 164.384 81.0292 163.304 81.0292 162.072C81.0292 160.84 81.2772 159.768 81.7732 158.856C82.2692 157.928 82.9652 157.216 83.8612 156.72C84.7732 156.224 85.8292 155.976 87.0292 155.976C88.2292 155.976 89.2772 156.224 90.1732 156.72C91.0852 157.216 91.7812 157.928 92.2612 158.856C92.7572 159.768 93.0052 160.84 93.0052 162.072C93.0052 163.304 92.7572 164.384 92.2612 165.312C91.7812 166.24 91.0852 166.952 90.1732 167.448C89.2772 167.944 88.2292 168.192 87.0292 168.192ZM87.0052 165.864C87.9812 165.864 88.7252 165.544 89.2372 164.904C89.7492 164.264 90.0052 163.32 90.0052 162.072C90.0052 160.84 89.7492 159.904 89.2372 159.264C88.7252 158.608 87.9892 158.28 87.0292 158.28C86.0692 158.28 85.3252 158.608 84.7972 159.264C84.2852 159.904 84.0292 160.84 84.0292 162.072C84.0292 163.32 84.2852 164.264 84.7972 164.904C85.3092 165.544 86.0452 165.864 87.0052 165.864ZM99.7299 168.192C97.9859 168.192 96.5779 167.848 95.5059 167.16C94.9939 166.856 94.7379 166.424 94.7379 165.864C94.7379 165.544 94.8259 165.288 95.0019 165.096C95.1779 164.888 95.3939 164.784 95.6499 164.784C95.9219 164.784 96.2979 164.912 96.7779 165.168C97.2899 165.408 97.7539 165.592 98.1699 165.72C98.6019 165.848 99.1459 165.912 99.8019 165.912C100.474 165.912 100.994 165.8 101.362 165.576C101.746 165.352 101.938 165.04 101.938 164.64C101.938 164.368 101.858 164.152 101.698 163.992C101.554 163.832 101.282 163.688 100.882 163.56C100.498 163.416 99.9059 163.256 99.1059 163.08C97.6819 162.792 96.6579 162.384 96.0339 161.856C95.4259 161.328 95.1219 160.6 95.1219 159.672C95.1219 158.968 95.3299 158.336 95.7459 157.776C96.1619 157.2 96.7299 156.76 97.4499 156.456C98.1859 156.136 99.0179 155.976 99.9459 155.976C100.618 155.976 101.266 156.064 101.89 156.24C102.514 156.4 103.074 156.64 103.57 156.96C104.082 157.28 104.338 157.704 104.338 158.232C104.338 158.552 104.25 158.824 104.074 159.048C103.898 159.256 103.682 159.36 103.426 159.36C103.25 159.36 103.074 159.328 102.898 159.264C102.738 159.184 102.53 159.072 102.274 158.928C101.81 158.688 101.41 158.512 101.074 158.4C100.738 158.272 100.322 158.208 99.8259 158.208C99.2339 158.208 98.7619 158.328 98.4099 158.568C98.0739 158.808 97.9059 159.136 97.9059 159.552C97.9059 159.952 98.0819 160.256 98.4339 160.464C98.7859 160.672 99.4659 160.88 100.474 161.088C101.546 161.312 102.386 161.568 102.994 161.856C103.602 162.144 104.034 162.504 104.29 162.936C104.562 163.368 104.698 163.92 104.698 164.592C104.698 165.68 104.242 166.552 103.33 167.208C102.434 167.864 101.234 168.192 99.7299 168.192ZM116.418 164.784C116.69 164.784 116.906 164.888 117.066 165.096C117.242 165.304 117.33 165.584 117.33 165.936C117.33 166.432 117.034 166.848 116.442 167.184C115.898 167.488 115.282 167.736 114.594 167.928C113.906 168.104 113.25 168.192 112.626 168.192C110.738 168.192 109.242 167.648 108.138 166.56C107.034 165.472 106.482 163.984 106.482 162.096C106.482 160.896 106.722 159.832 107.202 158.904C107.682 157.976 108.354 157.256 109.218 156.744C110.098 156.232 111.09 155.976 112.194 155.976C113.25 155.976 114.17 156.208 114.954 156.672C115.738 157.136 116.346 157.792 116.778 158.64C117.21 159.488 117.426 160.488 117.426 161.64C117.426 162.328 117.122 162.672 116.514 162.672H109.434C109.53 163.776 109.842 164.592 110.37 165.12C110.898 165.632 111.666 165.888 112.674 165.888C113.186 165.888 113.634 165.824 114.018 165.696C114.418 165.568 114.866 165.392 115.362 165.168C115.842 164.912 116.194 164.784 116.418 164.784ZM112.266 158.088C111.45 158.088 110.794 158.344 110.298 158.856C109.818 159.368 109.53 160.104 109.434 161.064H114.858C114.826 160.088 114.586 159.352 114.138 158.856C113.69 158.344 113.066 158.088 112.266 158.088ZM128.148 168C127.684 168 127.316 167.872 127.044 167.616C126.788 167.36 126.66 167 126.66 166.536V152.544C126.66 152.08 126.788 151.72 127.044 151.464C127.316 151.208 127.684 151.08 128.148 151.08H132.9C135.668 151.08 137.812 151.824 139.332 153.312C140.868 154.784 141.636 156.856 141.636 159.528C141.636 162.216 140.868 164.304 139.332 165.792C137.812 167.264 135.668 168 132.9 168H128.148ZM132.708 165.48C136.596 165.48 138.54 163.496 138.54 159.528C138.54 155.576 136.596 153.6 132.708 153.6H129.756V165.48H132.708ZM153.778 164.784C154.05 164.784 154.266 164.888 154.426 165.096C154.602 165.304 154.69 165.584 154.69 165.936C154.69 166.432 154.394 166.848 153.802 167.184C153.258 167.488 152.642 167.736 151.954 167.928C151.266 168.104 150.61 168.192 149.986 168.192C148.098 168.192 146.602 167.648 145.498 166.56C144.394 165.472 143.842 163.984 143.842 162.096C143.842 160.896 144.082 159.832 144.562 158.904C145.042 157.976 145.714 157.256 146.578 156.744C147.458 156.232 148.45 155.976 149.554 155.976C150.61 155.976 151.53 156.208 152.314 156.672C153.098 157.136 153.706 157.792 154.138 158.64C154.57 159.488 154.786 160.488 154.786 161.64C154.786 162.328 154.482 162.672 153.874 162.672H146.794C146.89 163.776 147.202 164.592 147.73 165.12C148.258 165.632 149.026 165.888 150.034 165.888C150.546 165.888 150.994 165.824 151.378 165.696C151.778 165.568 152.226 165.392 152.722 165.168C153.202 164.912 153.554 164.784 153.778 164.784ZM149.626 158.088C148.81 158.088 148.154 158.344 147.658 158.856C147.178 159.368 146.89 160.104 146.794 161.064H152.218C152.186 160.088 151.946 159.352 151.498 158.856C151.05 158.344 150.426 158.088 149.626 158.088ZM161.488 168.192C159.744 168.192 158.336 167.848 157.264 167.16C156.752 166.856 156.496 166.424 156.496 165.864C156.496 165.544 156.584 165.288 156.76 165.096C156.936 164.888 157.152 164.784 157.408 164.784C157.68 164.784 158.056 164.912 158.536 165.168C159.048 165.408 159.512 165.592 159.928 165.72C160.36 165.848 160.904 165.912 161.56 165.912C162.232 165.912 162.752 165.8 163.12 165.576C163.504 165.352 163.696 165.04 163.696 164.64C163.696 164.368 163.616 164.152 163.456 163.992C163.312 163.832 163.04 163.688 162.64 163.56C162.256 163.416 161.664 163.256 160.864 163.08C159.44 162.792 158.416 162.384 157.792 161.856C157.184 161.328 156.88 160.6 156.88 159.672C156.88 158.968 157.088 158.336 157.504 157.776C157.92 157.2 158.488 156.76 159.208 156.456C159.944 156.136 160.776 155.976 161.704 155.976C162.376 155.976 163.024 156.064 163.648 156.24C164.272 156.4 164.832 156.64 165.328 156.96C165.84 157.28 166.096 157.704 166.096 158.232C166.096 158.552 166.008 158.824 165.832 159.048C165.656 159.256 165.44 159.36 165.184 159.36C165.008 159.36 164.832 159.328 164.656 159.264C164.496 159.184 164.288 159.072 164.032 158.928C163.568 158.688 163.168 158.512 162.832 158.4C162.496 158.272 162.08 158.208 161.584 158.208C160.992 158.208 160.52 158.328 160.168 158.568C159.832 158.808 159.664 159.136 159.664 159.552C159.664 159.952 159.84 160.256 160.192 160.464C160.544 160.672 161.224 160.88 162.232 161.088C163.304 161.312 164.144 161.568 164.752 161.856C165.36 162.144 165.792 162.504 166.048 162.936C166.32 163.368 166.456 163.92 166.456 164.592C166.456 165.68 166 166.552 165.088 167.208C164.192 167.864 162.992 168.192 161.488 168.192ZM170.376 168.144C169.944 168.144 169.584 168.024 169.296 167.784C169.024 167.528 168.888 167.168 168.888 166.704V157.44C168.888 156.976 169.024 156.624 169.296 156.384C169.584 156.144 169.944 156.024 170.376 156.024C170.808 156.024 171.168 156.144 171.456 156.384C171.744 156.624 171.888 156.976 171.888 157.44V166.704C171.888 167.168 171.744 167.528 171.456 167.784C171.168 168.024 170.808 168.144 170.376 168.144ZM170.376 153.888C169.832 153.888 169.4 153.744 169.08 153.456C168.76 153.152 168.6 152.76 168.6 152.28C168.6 151.8 168.76 151.416 169.08 151.128C169.4 150.84 169.832 150.696 170.376 150.696C170.904 150.696 171.328 150.84 171.648 151.128C171.984 151.416 172.152 151.8 172.152 152.28C172.152 152.76 171.992 153.152 171.672 153.456C171.352 153.744 170.92 153.888 170.376 153.888ZM184.918 156.024C185.366 156.024 185.726 156.152 185.998 156.408C186.27 156.664 186.406 157.008 186.406 157.44V166.92C186.406 168.76 185.894 170.152 184.87 171.096C183.846 172.04 182.334 172.512 180.334 172.512C178.59 172.512 177.134 172.184 175.966 171.528C175.374 171.176 175.078 170.752 175.078 170.256C175.078 169.904 175.158 169.624 175.318 169.416C175.494 169.208 175.718 169.104 175.99 169.104C176.134 169.104 176.31 169.136 176.518 169.2C176.726 169.28 176.942 169.368 177.166 169.464C177.742 169.704 178.254 169.888 178.702 170.016C179.166 170.144 179.694 170.208 180.286 170.208C182.382 170.208 183.43 169.184 183.43 167.136V165.6C183.078 166.256 182.566 166.768 181.894 167.136C181.222 167.488 180.454 167.664 179.59 167.664C178.566 167.664 177.654 167.424 176.854 166.944C176.07 166.448 175.454 165.76 175.006 164.88C174.558 164 174.334 162.984 174.334 161.832C174.334 160.68 174.55 159.664 174.982 158.784C175.43 157.888 176.054 157.2 176.854 156.72C177.654 156.224 178.566 155.976 179.59 155.976C180.454 155.976 181.222 156.16 181.894 156.528C182.566 156.88 183.078 157.384 183.43 158.04V157.416C183.43 157 183.566 156.664 183.838 156.408C184.11 156.152 184.47 156.024 184.918 156.024ZM180.382 165.336C181.342 165.336 182.086 165.024 182.614 164.4C183.158 163.776 183.43 162.92 183.43 161.832C183.43 160.728 183.158 159.864 182.614 159.24C182.086 158.616 181.342 158.304 180.382 158.304C179.438 158.304 178.694 158.616 178.15 159.24C177.606 159.864 177.334 160.728 177.334 161.832C177.334 162.92 177.606 163.776 178.15 164.4C178.694 165.024 179.438 165.336 180.382 165.336ZM196.329 155.976C197.737 155.976 198.785 156.376 199.473 157.176C200.161 157.976 200.505 159.184 200.505 160.8V166.704C200.505 167.152 200.369 167.504 200.097 167.76C199.841 168.016 199.481 168.144 199.017 168.144C198.553 168.144 198.185 168.016 197.913 167.76C197.641 167.504 197.505 167.152 197.505 166.704V160.968C197.505 160.056 197.329 159.392 196.977 158.976C196.641 158.56 196.105 158.352 195.369 158.352C194.505 158.352 193.809 158.624 193.281 159.168C192.769 159.712 192.513 160.44 192.513 161.352V166.704C192.513 167.152 192.377 167.504 192.105 167.76C191.833 168.016 191.465 168.144 191.001 168.144C190.537 168.144 190.169 168.016 189.897 167.76C189.641 167.504 189.513 167.152 189.513 166.704V157.416C189.513 157 189.649 156.664 189.921 156.408C190.193 156.152 190.561 156.024 191.025 156.024C191.441 156.024 191.777 156.152 192.033 156.408C192.305 156.648 192.441 156.968 192.441 157.368V158.016C192.841 157.36 193.377 156.856 194.049 156.504C194.721 156.152 195.481 155.976 196.329 155.976Z" fill="black"/>
<path d="M113.194 21.2903H66.7421V52.2579H113.194V21.2903Z" fill="#F9BDBD"/>
<path d="M173.193 11.6127H64.8066C61.6054 11.6127 59 14.2181 59 17.4193V89.032C59 92.2332 61.6054 94.8386 64.8066 94.8386H97.7096V104.516H88.032V108.387H149.968V104.516H140.29V94.8386H173.193C176.395 94.8386 179 92.2332 179 89.032V17.4193C179 14.2181 176.395 11.6127 173.193 11.6127ZM64.8066 15.4838H173.194C174.262 15.4838 175.129 16.3528 175.129 17.4193V77.4193H62.871V17.4193C62.871 16.3528 63.738 15.4838 64.8066 15.4838ZM136.419 104.516H101.581V94.8386H136.419V104.516ZM173.193 90.9676H64.8066C63.738 90.9676 62.871 90.0986 62.871 89.032V81.2903H175.129V89.0324C175.129 90.0986 174.262 90.9676 173.193 90.9676Z" fill="#333333"/>
<path d="M126.969 58.0644H132.549V58.4205C130.301 59.2216 128.678 61.351 128.678 63.871C128.678 67.0722 131.283 69.6776 134.484 69.6776C137.004 69.6776 139.133 68.0538 139.935 65.8065H156.133C156.934 68.0538 159.063 69.6776 161.583 69.6776C164.784 69.6776 167.39 67.0722 167.39 63.871C167.39 61.351 165.766 59.222 163.519 58.4205V58.0644H169.141L171.464 34.8386H130.613V38.7096H167.184L165.635 54.1934H130.386L126.515 23.2258H119V27.0969H123.097L126.969 58.0644ZM156.13 61.9355H139.932C139.348 60.2963 138.057 59.005 136.417 58.4205V58.0644H159.643V58.4205C158.006 59.005 156.715 60.2963 156.13 61.9355ZM134.484 65.8065C133.415 65.8065 132.548 64.9375 132.548 63.871C132.548 62.8045 133.415 61.9355 134.484 61.9355C135.552 61.9355 136.419 62.8045 136.419 63.871C136.419 64.9375 135.552 65.8065 134.484 65.8065ZM161.581 65.8065C160.512 65.8065 159.645 64.9375 159.645 63.871C159.645 62.8045 160.512 61.9355 161.581 61.9355C162.649 61.9355 163.516 62.8045 163.516 63.871C163.516 64.9375 162.649 65.8065 161.581 65.8065Z" fill="#333333"/>
<path d="M163.516 44.5162H132.548V48.3873H163.516V44.5162Z" fill="#333333"/>
<path d="M113.194 58.0645H66.7421V61.9355H113.194V58.0645Z" fill="#333333"/>
<path d="M113.194 67.7421H66.7421V71.6131H113.194V67.7421Z" fill="#333333"/>
<path d="M286.633 166.152C286.729 166.36 286.777 166.568 286.777 166.776C286.777 167.144 286.625 167.456 286.321 167.712C286.033 167.968 285.697 168.096 285.313 168.096C285.057 168.096 284.817 168.032 284.593 167.904C284.369 167.76 284.193 167.544 284.065 167.256L282.625 164.04H274.177L272.737 167.256C272.609 167.544 272.433 167.76 272.209 167.904C271.985 168.032 271.737 168.096 271.465 168.096C271.097 168.096 270.761 167.968 270.457 167.712C270.153 167.456 270.001 167.144 270.001 166.776C270.001 166.568 270.049 166.36 270.145 166.152L276.769 151.92C276.913 151.6 277.129 151.36 277.417 151.2C277.721 151.024 278.041 150.936 278.377 150.936C278.713 150.936 279.025 151.024 279.313 151.2C279.617 151.36 279.841 151.6 279.985 151.92L286.633 166.152ZM281.569 161.64L278.401 154.512L275.233 161.64H281.569ZM295.397 156.024C295.813 155.992 296.141 156.08 296.381 156.288C296.621 156.496 296.741 156.808 296.741 157.224C296.741 157.656 296.637 157.976 296.429 158.184C296.221 158.392 295.845 158.528 295.301 158.592L294.581 158.664C293.637 158.76 292.941 159.08 292.493 159.624C292.061 160.168 291.845 160.848 291.845 161.664V166.704C291.845 167.168 291.701 167.528 291.413 167.784C291.125 168.024 290.765 168.144 290.333 168.144C289.901 168.144 289.541 168.024 289.253 167.784C288.981 167.528 288.845 167.168 288.845 166.704V157.416C288.845 156.968 288.981 156.624 289.253 156.384C289.541 156.144 289.893 156.024 290.309 156.024C290.725 156.024 291.061 156.144 291.317 156.384C291.573 156.608 291.701 156.936 291.701 157.368V158.328C292.005 157.624 292.453 157.08 293.045 156.696C293.653 156.312 294.325 156.096 295.061 156.048L295.397 156.024ZM307.086 164.784C307.358 164.784 307.574 164.888 307.734 165.096C307.91 165.304 307.998 165.584 307.998 165.936C307.998 166.432 307.702 166.848 307.11 167.184C306.566 167.488 305.95 167.736 305.262 167.928C304.574 168.104 303.918 168.192 303.294 168.192C301.406 168.192 299.91 167.648 298.806 166.56C297.702 165.472 297.15 163.984 297.15 162.096C297.15 160.896 297.39 159.832 297.87 158.904C298.35 157.976 299.022 157.256 299.886 156.744C300.766 156.232 301.758 155.976 302.862 155.976C303.918 155.976 304.838 156.208 305.622 156.672C306.406 157.136 307.014 157.792 307.446 158.64C307.878 159.488 308.094 160.488 308.094 161.64C308.094 162.328 307.79 162.672 307.182 162.672H300.102C300.198 163.776 300.51 164.592 301.038 165.12C301.566 165.632 302.334 165.888 303.342 165.888C303.854 165.888 304.302 165.824 304.686 165.696C305.086 165.568 305.534 165.392 306.03 165.168C306.51 164.912 306.862 164.784 307.086 164.784ZM302.934 158.088C302.118 158.088 301.462 158.344 300.966 158.856C300.486 159.368 300.198 160.104 300.102 161.064H305.526C305.494 160.088 305.254 159.352 304.806 158.856C304.358 158.344 303.734 158.088 302.934 158.088ZM315.636 155.976C317.268 155.976 318.476 156.384 319.26 157.2C320.06 158 320.46 159.224 320.46 160.872V166.728C320.46 167.16 320.332 167.504 320.076 167.76C319.82 168 319.468 168.12 319.02 168.12C318.604 168.12 318.26 167.992 317.988 167.736C317.732 167.48 317.604 167.144 317.604 166.728V166.2C317.332 166.824 316.9 167.312 316.308 167.664C315.732 168.016 315.06 168.192 314.292 168.192C313.508 168.192 312.796 168.032 312.156 167.712C311.516 167.392 311.012 166.952 310.644 166.392C310.276 165.832 310.092 165.208 310.092 164.52C310.092 163.656 310.308 162.976 310.74 162.48C311.188 161.984 311.908 161.624 312.9 161.4C313.892 161.176 315.26 161.064 317.004 161.064H317.604V160.512C317.604 159.728 317.436 159.16 317.1 158.808C316.764 158.44 316.22 158.256 315.468 158.256C315.004 158.256 314.532 158.328 314.052 158.472C313.572 158.6 313.004 158.792 312.348 159.048C311.932 159.256 311.628 159.36 311.436 159.36C311.148 159.36 310.908 159.256 310.716 159.048C310.54 158.84 310.452 158.568 310.452 158.232C310.452 157.96 310.516 157.728 310.644 157.536C310.788 157.328 311.02 157.136 311.34 156.96C311.9 156.656 312.564 156.416 313.332 156.24C314.116 156.064 314.884 155.976 315.636 155.976ZM314.892 166.032C315.692 166.032 316.34 165.768 316.836 165.24C317.348 164.696 317.604 164 317.604 163.152V162.648H317.172C316.1 162.648 315.268 162.696 314.676 162.792C314.084 162.888 313.66 163.056 313.404 163.296C313.148 163.536 313.02 163.864 313.02 164.28C313.02 164.792 313.196 165.216 313.548 165.552C313.916 165.872 314.364 166.032 314.892 166.032ZM343.969 155.976C345.249 155.976 346.225 156.36 346.897 157.128C347.585 157.88 347.929 159.104 347.929 160.8V166.704C347.929 167.168 347.785 167.528 347.497 167.784C347.225 168.024 346.865 168.144 346.417 168.144C345.985 168.144 345.625 168.024 345.337 167.784C345.065 167.528 344.929 167.168 344.929 166.704V160.8C344.929 159.92 344.769 159.296 344.449 158.928C344.145 158.544 343.673 158.352 343.033 158.352C342.249 158.352 341.625 158.624 341.161 159.168C340.697 159.696 340.465 160.424 340.465 161.352V166.704C340.465 167.168 340.321 167.528 340.033 167.784C339.761 168.024 339.409 168.144 338.977 168.144C338.545 168.144 338.185 168.024 337.897 167.784C337.609 167.528 337.465 167.168 337.465 166.704V160.8C337.465 159.92 337.305 159.296 336.985 158.928C336.681 158.544 336.209 158.352 335.569 158.352C334.785 158.352 334.161 158.624 333.697 159.168C333.249 159.696 333.025 160.424 333.025 161.352V166.704C333.025 167.168 332.881 167.528 332.593 167.784C332.305 168.024 331.945 168.144 331.513 168.144C331.081 168.144 330.721 168.024 330.433 167.784C330.161 167.528 330.025 167.168 330.025 166.704V157.416C330.025 156.968 330.169 156.624 330.457 156.384C330.745 156.144 331.105 156.024 331.537 156.024C331.953 156.024 332.289 156.144 332.545 156.384C332.817 156.608 332.953 156.936 332.953 157.368V157.944C333.321 157.304 333.809 156.816 334.417 156.48C335.041 156.144 335.753 155.976 336.553 155.976C338.313 155.976 339.489 156.712 340.081 158.184C340.433 157.512 340.953 156.976 341.641 156.576C342.329 156.176 343.105 155.976 343.969 155.976ZM360.266 164.784C360.538 164.784 360.754 164.888 360.914 165.096C361.09 165.304 361.178 165.584 361.178 165.936C361.178 166.432 360.882 166.848 360.29 167.184C359.746 167.488 359.13 167.736 358.442 167.928C357.754 168.104 357.098 168.192 356.474 168.192C354.586 168.192 353.09 167.648 351.986 166.56C350.882 165.472 350.33 163.984 350.33 162.096C350.33 160.896 350.57 159.832 351.05 158.904C351.53 157.976 352.202 157.256 353.066 156.744C353.946 156.232 354.938 155.976 356.042 155.976C357.098 155.976 358.018 156.208 358.802 156.672C359.586 157.136 360.194 157.792 360.626 158.64C361.058 159.488 361.274 160.488 361.274 161.64C361.274 162.328 360.97 162.672 360.362 162.672H353.282C353.378 163.776 353.69 164.592 354.218 165.12C354.746 165.632 355.514 165.888 356.522 165.888C357.034 165.888 357.482 165.824 357.866 165.696C358.266 165.568 358.714 165.392 359.21 165.168C359.69 164.912 360.042 164.784 360.266 164.784ZM356.114 158.088C355.298 158.088 354.642 158.344 354.146 158.856C353.666 159.368 353.378 160.104 353.282 161.064H358.706C358.674 160.088 358.434 159.352 357.986 158.856C357.538 158.344 356.914 158.088 356.114 158.088ZM368.816 155.976C370.448 155.976 371.656 156.384 372.44 157.2C373.24 158 373.64 159.224 373.64 160.872V166.728C373.64 167.16 373.512 167.504 373.256 167.76C373 168 372.648 168.12 372.2 168.12C371.784 168.12 371.44 167.992 371.168 167.736C370.912 167.48 370.784 167.144 370.784 166.728V166.2C370.512 166.824 370.08 167.312 369.488 167.664C368.912 168.016 368.24 168.192 367.472 168.192C366.688 168.192 365.976 168.032 365.336 167.712C364.696 167.392 364.192 166.952 363.824 166.392C363.456 165.832 363.272 165.208 363.272 164.52C363.272 163.656 363.488 162.976 363.92 162.48C364.368 161.984 365.088 161.624 366.08 161.4C367.072 161.176 368.44 161.064 370.184 161.064H370.784V160.512C370.784 159.728 370.616 159.16 370.28 158.808C369.944 158.44 369.4 158.256 368.648 158.256C368.184 158.256 367.712 158.328 367.232 158.472C366.752 158.6 366.184 158.792 365.528 159.048C365.112 159.256 364.808 159.36 364.616 159.36C364.328 159.36 364.088 159.256 363.896 159.048C363.72 158.84 363.632 158.568 363.632 158.232C363.632 157.96 363.696 157.728 363.824 157.536C363.968 157.328 364.2 157.136 364.52 156.96C365.08 156.656 365.744 156.416 366.512 156.24C367.296 156.064 368.064 155.976 368.816 155.976ZM368.072 166.032C368.872 166.032 369.52 165.768 370.016 165.24C370.528 164.696 370.784 164 370.784 163.152V162.648H370.352C369.28 162.648 368.448 162.696 367.856 162.792C367.264 162.888 366.84 163.056 366.584 163.296C366.328 163.536 366.2 163.864 366.2 164.28C366.2 164.792 366.376 165.216 366.728 165.552C367.096 165.872 367.544 166.032 368.072 166.032ZM380.937 168.192C379.193 168.192 377.785 167.848 376.713 167.16C376.201 166.856 375.945 166.424 375.945 165.864C375.945 165.544 376.033 165.288 376.209 165.096C376.385 164.888 376.601 164.784 376.857 164.784C377.129 164.784 377.505 164.912 377.985 165.168C378.497 165.408 378.961 165.592 379.377 165.72C379.809 165.848 380.353 165.912 381.009 165.912C381.681 165.912 382.201 165.8 382.569 165.576C382.953 165.352 383.145 165.04 383.145 164.64C383.145 164.368 383.065 164.152 382.905 163.992C382.761 163.832 382.489 163.688 382.089 163.56C381.705 163.416 381.113 163.256 380.313 163.08C378.889 162.792 377.865 162.384 377.241 161.856C376.633 161.328 376.329 160.6 376.329 159.672C376.329 158.968 376.537 158.336 376.953 157.776C377.369 157.2 377.937 156.76 378.657 156.456C379.393 156.136 380.225 155.976 381.153 155.976C381.825 155.976 382.473 156.064 383.097 156.24C383.721 156.4 384.281 156.64 384.777 156.96C385.289 157.28 385.545 157.704 385.545 158.232C385.545 158.552 385.457 158.824 385.281 159.048C385.105 159.256 384.889 159.36 384.633 159.36C384.457 159.36 384.281 159.328 384.105 159.264C383.945 159.184 383.737 159.072 383.481 158.928C383.017 158.688 382.617 158.512 382.281 158.4C381.945 158.272 381.529 158.208 381.033 158.208C380.441 158.208 379.969 158.328 379.617 158.568C379.281 158.808 379.113 159.136 379.113 159.552C379.113 159.952 379.289 160.256 379.641 160.464C379.993 160.672 380.673 160.88 381.681 161.088C382.753 161.312 383.593 161.568 384.201 161.856C384.809 162.144 385.241 162.504 385.497 162.936C385.769 163.368 385.905 163.92 385.905 164.592C385.905 165.68 385.449 166.552 384.537 167.208C383.641 167.864 382.441 168.192 380.937 168.192ZM397.601 156.024C398.065 156.024 398.433 156.152 398.705 156.408C398.977 156.664 399.113 157.008 399.113 157.44V166.752C399.113 167.168 398.969 167.504 398.681 167.76C398.409 168.016 398.049 168.144 397.601 168.144C397.169 168.144 396.825 168.024 396.569 167.784C396.313 167.544 396.185 167.216 396.185 166.8V166.2C395.817 166.84 395.321 167.336 394.697 167.688C394.073 168.024 393.369 168.192 392.585 168.192C389.705 168.192 388.265 166.576 388.265 163.344V157.44C388.265 157.008 388.401 156.664 388.673 156.408C388.945 156.152 389.305 156.024 389.753 156.024C390.217 156.024 390.585 156.152 390.857 156.408C391.129 156.664 391.265 157.008 391.265 157.44V163.368C391.265 164.2 391.433 164.816 391.769 165.216C392.105 165.616 392.633 165.816 393.353 165.816C394.185 165.816 394.849 165.544 395.345 165C395.857 164.44 396.113 163.704 396.113 162.792V157.44C396.113 157.008 396.249 156.664 396.521 156.408C396.793 156.152 397.153 156.024 397.601 156.024ZM408.788 156.024C409.204 155.992 409.532 156.08 409.772 156.288C410.012 156.496 410.132 156.808 410.132 157.224C410.132 157.656 410.028 157.976 409.82 158.184C409.612 158.392 409.236 158.528 408.692 158.592L407.972 158.664C407.028 158.76 406.332 159.08 405.884 159.624C405.452 160.168 405.236 160.848 405.236 161.664V166.704C405.236 167.168 405.092 167.528 404.804 167.784C404.516 168.024 404.156 168.144 403.724 168.144C403.292 168.144 402.932 168.024 402.644 167.784C402.372 167.528 402.236 167.168 402.236 166.704V157.416C402.236 156.968 402.372 156.624 402.644 156.384C402.932 156.144 403.284 156.024 403.7 156.024C404.116 156.024 404.452 156.144 404.708 156.384C404.964 156.608 405.092 156.936 405.092 157.368V158.328C405.396 157.624 405.844 157.08 406.436 156.696C407.044 156.312 407.716 156.096 408.452 156.048L408.788 156.024ZM412.911 168.144C412.479 168.144 412.119 168.024 411.831 167.784C411.559 167.528 411.423 167.168 411.423 166.704V157.44C411.423 156.976 411.559 156.624 411.831 156.384C412.119 156.144 412.479 156.024 412.911 156.024C413.343 156.024 413.703 156.144 413.991 156.384C414.279 156.624 414.423 156.976 414.423 157.44V166.704C414.423 167.168 414.279 167.528 413.991 167.784C413.703 168.024 413.343 168.144 412.911 168.144ZM412.911 153.888C412.367 153.888 411.935 153.744 411.615 153.456C411.295 153.152 411.135 152.76 411.135 152.28C411.135 151.8 411.295 151.416 411.615 151.128C411.935 150.84 412.367 150.696 412.911 150.696C413.439 150.696 413.863 150.84 414.183 151.128C414.519 151.416 414.687 151.8 414.687 152.28C414.687 152.76 414.527 153.152 414.207 153.456C413.887 153.744 413.455 153.888 412.911 153.888ZM424.333 155.976C425.741 155.976 426.789 156.376 427.477 157.176C428.165 157.976 428.509 159.184 428.509 160.8V166.704C428.509 167.152 428.373 167.504 428.101 167.76C427.845 168.016 427.485 168.144 427.021 168.144C426.557 168.144 426.189 168.016 425.917 167.76C425.645 167.504 425.509 167.152 425.509 166.704V160.968C425.509 160.056 425.333 159.392 424.981 158.976C424.645 158.56 424.109 158.352 423.373 158.352C422.509 158.352 421.813 158.624 421.285 159.168C420.773 159.712 420.517 160.44 420.517 161.352V166.704C420.517 167.152 420.381 167.504 420.109 167.76C419.837 168.016 419.469 168.144 419.005 168.144C418.541 168.144 418.173 168.016 417.901 167.76C417.645 167.504 417.517 167.152 417.517 166.704V157.416C417.517 157 417.653 156.664 417.925 156.408C418.197 156.152 418.565 156.024 419.029 156.024C419.445 156.024 419.781 156.152 420.037 156.408C420.309 156.648 420.445 156.968 420.445 157.368V158.016C420.845 157.36 421.381 156.856 422.053 156.504C422.725 156.152 423.485 155.976 424.333 155.976ZM441.492 156.024C441.94 156.024 442.3 156.152 442.572 156.408C442.844 156.664 442.98 157.008 442.98 157.44V166.92C442.98 168.76 442.468 170.152 441.444 171.096C440.42 172.04 438.908 172.512 436.908 172.512C435.164 172.512 433.708 172.184 432.54 171.528C431.948 171.176 431.652 170.752 431.652 170.256C431.652 169.904 431.732 169.624 431.892 169.416C432.068 169.208 432.292 169.104 432.564 169.104C432.708 169.104 432.884 169.136 433.092 169.2C433.3 169.28 433.516 169.368 433.74 169.464C434.316 169.704 434.828 169.888 435.276 170.016C435.74 170.144 436.268 170.208 436.86 170.208C438.956 170.208 440.004 169.184 440.004 167.136V165.6C439.652 166.256 439.14 166.768 438.468 167.136C437.796 167.488 437.028 167.664 436.164 167.664C435.14 167.664 434.228 167.424 433.428 166.944C432.644 166.448 432.028 165.76 431.58 164.88C431.132 164 430.908 162.984 430.908 161.832C430.908 160.68 431.124 159.664 431.556 158.784C432.004 157.888 432.628 157.2 433.428 156.72C434.228 156.224 435.14 155.976 436.164 155.976C437.028 155.976 437.796 156.16 438.468 156.528C439.14 156.88 439.652 157.384 440.004 158.04V157.416C440.004 157 440.14 156.664 440.412 156.408C440.684 156.152 441.044 156.024 441.492 156.024ZM436.956 165.336C437.916 165.336 438.66 165.024 439.188 164.4C439.732 163.776 440.004 162.92 440.004 161.832C440.004 160.728 439.732 159.864 439.188 159.24C438.66 158.616 437.916 158.304 436.956 158.304C436.012 158.304 435.268 158.616 434.724 159.24C434.18 159.864 433.908 160.728 433.908 161.832C433.908 162.92 434.18 163.776 434.724 164.4C435.268 165.024 436.012 165.336 436.956 165.336Z" fill="black"/>
<path d="M315.507 111.84C317.043 111.84 318.195 112.192 318.963 112.896C319.795 113.6 320.211 114.592 320.211 115.872C320.211 118.624 318.643 120 315.507 120H278.451C277.043 120 275.923 119.616 275.091 118.848C274.323 118.016 273.939 116.992 273.939 115.776C273.939 114.304 274.515 112.96 275.667 111.744L298.227 87.072C301.235 83.808 303.411 80.832 304.755 78.144C306.099 75.456 306.771 72.8 306.771 70.176C306.771 66.784 305.779 64.192 303.795 62.4C301.875 60.544 299.123 59.616 295.539 59.616C290.099 59.616 284.691 61.696 279.315 65.856C278.611 66.304 278.003 66.656 277.491 66.912C277.043 67.104 276.563 67.2 276.051 67.2C275.155 67.2 274.387 66.784 273.747 65.952C273.107 65.12 272.787 64.128 272.787 62.976C272.787 61.376 273.427 60.096 274.707 59.136C277.395 56.832 280.627 55.008 284.403 53.664C288.179 52.256 291.987 51.552 295.827 51.552C302.163 51.552 307.187 53.184 310.899 56.448C314.675 59.648 316.563 64 316.563 69.504C316.563 73.408 315.699 77.12 313.971 80.64C312.307 84.16 309.491 88.096 305.523 92.448L287.379 111.84H315.507Z" fill="#F9BDBD" fill-opacity="0.25"/>
<path d="M347.323 94.8387V1.93549H324.097V94.8387V98.7097V118.065H389.903V94.8387H347.323Z" fill="#F7DEA6"/>
<path d="M349.258 92.9032V0H322.161V120H391.839V92.9032H349.258ZM345.387 3.87097V94.0374L331.701 107.723L334.438 110.46L348.124 96.7742H387.968V104.516H349.258V116.129H328.769L331.272 113.626L328.535 110.89L326.032 113.392V98.7097H339.581V94.8387H326.032V90.9677H331.839V87.0968H326.032V83.2258H339.581V79.3548H326.032V75.4839H331.839V71.6129H326.032V67.7419H339.581V63.871H326.032V60H331.839V56.129H326.032V52.2581H339.581V48.3871H326.032V44.5161H331.839V40.6452H326.032V36.7742H339.581V32.9032H326.032V29.0323H331.839V25.1613H326.032V3.87097H345.387ZM360.871 108.387H364.742V116.129H360.871V108.387ZM357 116.129H353.129V108.387H357V116.129ZM368.613 108.387H372.484V116.129H368.613V108.387ZM376.355 108.387H380.226V116.129H376.355V108.387ZM384.097 116.129V108.387H387.968V116.129H384.097Z" fill="#333333"/>
<path d="M335.71 19.3548C338.911 19.3548 341.516 16.7497 341.516 13.5484C341.516 10.3471 338.911 7.74194 335.71 7.74194C332.508 7.74194 329.903 10.3471 329.903 13.5484C329.903 16.7497 332.508 19.3548 335.71 19.3548ZM335.71 11.6129C336.778 11.6129 337.645 12.48 337.645 13.5484C337.645 14.6168 336.778 15.4839 335.71 15.4839C334.641 15.4839 333.774 14.6168 333.774 13.5484C333.774 12.48 334.641 11.6129 335.71 11.6129Z" fill="#333333"/>
<path d="M549.572 159.264C550.548 159.536 551.3 160.032 551.828 160.752C552.372 161.472 552.644 162.352 552.644 163.392C552.644 164.832 552.124 165.96 551.084 166.776C550.06 167.592 548.644 168 546.836 168H540.644C540.18 168 539.812 167.872 539.54 167.616C539.284 167.36 539.156 167 539.156 166.536V152.544C539.156 152.08 539.284 151.72 539.54 151.464C539.812 151.208 540.18 151.08 540.644 151.08H546.596C548.356 151.08 549.732 151.472 550.724 152.256C551.732 153.024 552.236 154.104 552.236 155.496C552.236 156.392 551.996 157.168 551.516 157.824C551.052 158.48 550.404 158.96 549.572 159.264ZM542.18 158.208H546.092C548.22 158.208 549.284 157.416 549.284 155.832C549.284 155.032 549.02 154.44 548.492 154.056C547.964 153.672 547.164 153.48 546.092 153.48H542.18V158.208ZM546.5 165.6C547.62 165.6 548.436 165.4 548.948 165C549.46 164.6 549.716 163.976 549.716 163.128C549.716 162.28 549.452 161.648 548.924 161.232C548.412 160.816 547.604 160.608 546.5 160.608H542.18V165.6H546.5ZM564.539 156.024C565.003 156.024 565.371 156.152 565.643 156.408C565.915 156.664 566.051 157.008 566.051 157.44V166.752C566.051 167.168 565.907 167.504 565.619 167.76C565.347 168.016 564.987 168.144 564.539 168.144C564.107 168.144 563.763 168.024 563.507 167.784C563.251 167.544 563.123 167.216 563.123 166.8V166.2C562.755 166.84 562.259 167.336 561.635 167.688C561.011 168.024 560.307 168.192 559.523 168.192C556.643 168.192 555.203 166.576 555.203 163.344V157.44C555.203 157.008 555.339 156.664 555.611 156.408C555.883 156.152 556.243 156.024 556.691 156.024C557.155 156.024 557.523 156.152 557.795 156.408C558.067 156.664 558.203 157.008 558.203 157.44V163.368C558.203 164.2 558.371 164.816 558.707 165.216C559.043 165.616 559.571 165.816 560.291 165.816C561.123 165.816 561.787 165.544 562.283 165C562.795 164.44 563.051 163.704 563.051 162.792V157.44C563.051 157.008 563.187 156.664 563.459 156.408C563.731 156.152 564.091 156.024 564.539 156.024ZM578.965 150.96C579.413 150.96 579.781 151.088 580.069 151.344C580.357 151.6 580.501 151.936 580.501 152.352V166.704C580.501 167.136 580.365 167.48 580.093 167.736C579.821 167.992 579.461 168.12 579.013 168.12C578.565 168.12 578.205 167.992 577.933 167.736C577.661 167.48 577.525 167.136 577.525 166.704V166.104C577.173 166.76 576.661 167.272 575.989 167.64C575.333 168.008 574.581 168.192 573.733 168.192C572.725 168.192 571.821 167.936 571.021 167.424C570.237 166.912 569.621 166.192 569.173 165.264C568.741 164.32 568.525 163.24 568.525 162.024C568.525 160.808 568.741 159.744 569.173 158.832C569.621 157.92 570.237 157.216 571.021 156.72C571.805 156.224 572.709 155.976 573.733 155.976C574.581 155.976 575.333 156.152 575.989 156.504C576.645 156.856 577.149 157.352 577.501 157.992V152.304C577.501 151.904 577.629 151.584 577.885 151.344C578.157 151.088 578.517 150.96 578.965 150.96ZM574.525 165.864C575.485 165.864 576.221 165.536 576.733 164.88C577.261 164.224 577.525 163.288 577.525 162.072C577.525 160.856 577.261 159.928 576.733 159.288C576.221 158.632 575.493 158.304 574.549 158.304C573.589 158.304 572.845 158.624 572.317 159.264C571.789 159.904 571.525 160.824 571.525 162.024C571.525 163.24 571.789 164.184 572.317 164.856C572.845 165.528 573.581 165.864 574.525 165.864ZM593.523 156.024C593.971 156.024 594.331 156.152 594.603 156.408C594.875 156.664 595.011 157.008 595.011 157.44V166.92C595.011 168.76 594.499 170.152 593.475 171.096C592.451 172.04 590.939 172.512 588.939 172.512C587.195 172.512 585.739 172.184 584.571 171.528C583.979 171.176 583.683 170.752 583.683 170.256C583.683 169.904 583.763 169.624 583.923 169.416C584.099 169.208 584.323 169.104 584.595 169.104C584.739 169.104 584.915 169.136 585.123 169.2C585.331 169.28 585.547 169.368 585.771 169.464C586.347 169.704 586.859 169.888 587.307 170.016C587.771 170.144 588.299 170.208 588.891 170.208C590.987 170.208 592.035 169.184 592.035 167.136V165.6C591.683 166.256 591.171 166.768 590.499 167.136C589.827 167.488 589.059 167.664 588.195 167.664C587.171 167.664 586.259 167.424 585.459 166.944C584.675 166.448 584.059 165.76 583.611 164.88C583.163 164 582.939 162.984 582.939 161.832C582.939 160.68 583.155 159.664 583.587 158.784C584.035 157.888 584.659 157.2 585.459 156.72C586.259 156.224 587.171 155.976 588.195 155.976C589.059 155.976 589.827 156.16 590.499 156.528C591.171 156.88 591.683 157.384 592.035 158.04V157.416C592.035 157 592.171 156.664 592.443 156.408C592.715 156.152 593.075 156.024 593.523 156.024ZM588.987 165.336C589.947 165.336 590.691 165.024 591.219 164.4C591.763 163.776 592.035 162.92 592.035 161.832C592.035 160.728 591.763 159.864 591.219 159.24C590.691 158.616 589.947 158.304 588.987 158.304C588.043 158.304 587.299 158.616 586.755 159.24C586.211 159.864 585.939 160.728 585.939 161.832C585.939 162.92 586.211 163.776 586.755 164.4C587.299 165.024 588.043 165.336 588.987 165.336ZM607.407 164.784C607.679 164.784 607.895 164.888 608.055 165.096C608.231 165.304 608.319 165.584 608.319 165.936C608.319 166.432 608.023 166.848 607.431 167.184C606.887 167.488 606.271 167.736 605.583 167.928C604.895 168.104 604.239 168.192 603.615 168.192C601.727 168.192 600.231 167.648 599.127 166.56C598.023 165.472 597.471 163.984 597.471 162.096C597.471 160.896 597.711 159.832 598.191 158.904C598.671 157.976 599.343 157.256 600.207 156.744C601.087 156.232 602.079 155.976 603.183 155.976C604.239 155.976 605.159 156.208 605.943 156.672C606.727 157.136 607.335 157.792 607.767 158.64C608.199 159.488 608.415 160.488 608.415 161.64C608.415 162.328 608.111 162.672 607.503 162.672H600.423C600.519 163.776 600.831 164.592 601.359 165.12C601.887 165.632 602.655 165.888 603.663 165.888C604.175 165.888 604.623 165.824 605.007 165.696C605.407 165.568 605.855 165.392 606.351 165.168C606.831 164.912 607.183 164.784 607.407 164.784ZM603.255 158.088C602.439 158.088 601.783 158.344 601.287 158.856C600.807 159.368 600.519 160.104 600.423 161.064H605.847C605.815 160.088 605.575 159.352 605.127 158.856C604.679 158.344 604.055 158.088 603.255 158.088ZM616.801 165.912C617.601 165.96 618.001 166.32 618.001 166.992C618.001 167.376 617.841 167.672 617.521 167.88C617.217 168.072 616.777 168.152 616.201 168.12L615.553 168.072C612.865 167.88 611.521 166.44 611.521 163.752V158.52H610.321C609.889 158.52 609.553 158.424 609.313 158.232C609.089 158.04 608.977 157.76 608.977 157.392C608.977 157.024 609.089 156.744 609.313 156.552C609.553 156.36 609.889 156.264 610.321 156.264H611.521V154.056C611.521 153.624 611.657 153.28 611.929 153.024C612.201 152.768 612.569 152.64 613.033 152.64C613.481 152.64 613.841 152.768 614.113 153.024C614.385 153.28 614.521 153.624 614.521 154.056V156.264H616.561C616.993 156.264 617.321 156.36 617.545 156.552C617.785 156.744 617.905 157.024 617.905 157.392C617.905 157.76 617.785 158.04 617.545 158.232C617.321 158.424 616.993 158.52 616.561 158.52H614.521V163.968C614.521 165.152 615.065 165.784 616.153 165.864L616.801 165.912ZM621.052 168.144C620.62 168.144 620.26 168.024 619.972 167.784C619.7 167.528 619.564 167.168 619.564 166.704V157.44C619.564 156.976 619.7 156.624 619.972 156.384C620.26 156.144 620.62 156.024 621.052 156.024C621.484 156.024 621.844 156.144 622.132 156.384C622.42 156.624 622.564 156.976 622.564 157.44V166.704C622.564 167.168 622.42 167.528 622.132 167.784C621.844 168.024 621.484 168.144 621.052 168.144ZM621.052 153.888C620.508 153.888 620.076 153.744 619.756 153.456C619.436 153.152 619.276 152.76 619.276 152.28C619.276 151.8 619.436 151.416 619.756 151.128C620.076 150.84 620.508 150.696 621.052 150.696C621.58 150.696 622.004 150.84 622.324 151.128C622.66 151.416 622.828 151.8 622.828 152.28C622.828 152.76 622.668 153.152 622.348 153.456C622.028 153.744 621.596 153.888 621.052 153.888ZM632.474 155.976C633.882 155.976 634.93 156.376 635.618 157.176C636.306 157.976 636.65 159.184 636.65 160.8V166.704C636.65 167.152 636.514 167.504 636.242 167.76C635.986 168.016 635.626 168.144 635.162 168.144C634.698 168.144 634.33 168.016 634.058 167.76C633.786 167.504 633.65 167.152 633.65 166.704V160.968C633.65 160.056 633.474 159.392 633.122 158.976C632.786 158.56 632.25 158.352 631.514 158.352C630.65 158.352 629.954 158.624 629.426 159.168C628.914 159.712 628.658 160.44 628.658 161.352V166.704C628.658 167.152 628.522 167.504 628.25 167.76C627.978 168.016 627.61 168.144 627.146 168.144C626.682 168.144 626.314 168.016 626.042 167.76C625.786 167.504 625.658 167.152 625.658 166.704V157.416C625.658 157 625.794 156.664 626.066 156.408C626.338 156.152 626.706 156.024 627.17 156.024C627.586 156.024 627.922 156.152 628.178 156.408C628.45 156.648 628.586 156.968 628.586 157.368V158.016C628.986 157.36 629.522 156.856 630.194 156.504C630.866 156.152 631.626 155.976 632.474 155.976ZM649.633 156.024C650.081 156.024 650.441 156.152 650.713 156.408C650.985 156.664 651.121 157.008 651.121 157.44V166.92C651.121 168.76 650.609 170.152 649.585 171.096C648.561 172.04 647.049 172.512 645.049 172.512C643.305 172.512 641.849 172.184 640.681 171.528C640.089 171.176 639.793 170.752 639.793 170.256C639.793 169.904 639.873 169.624 640.033 169.416C640.209 169.208 640.433 169.104 640.705 169.104C640.849 169.104 641.025 169.136 641.233 169.2C641.441 169.28 641.657 169.368 641.881 169.464C642.457 169.704 642.969 169.888 643.417 170.016C643.881 170.144 644.409 170.208 645.001 170.208C647.097 170.208 648.145 169.184 648.145 167.136V165.6C647.793 166.256 647.281 166.768 646.609 167.136C645.937 167.488 645.169 167.664 644.305 167.664C643.281 167.664 642.369 167.424 641.569 166.944C640.785 166.448 640.169 165.76 639.721 164.88C639.273 164 639.049 162.984 639.049 161.832C639.049 160.68 639.265 159.664 639.697 158.784C640.145 157.888 640.769 157.2 641.569 156.72C642.369 156.224 643.281 155.976 644.305 155.976C645.169 155.976 645.937 156.16 646.609 156.528C647.281 156.88 647.793 157.384 648.145 158.04V157.416C648.145 157 648.281 156.664 648.553 156.408C648.825 156.152 649.185 156.024 649.633 156.024ZM645.097 165.336C646.057 165.336 646.801 165.024 647.329 164.4C647.873 163.776 648.145 162.92 648.145 161.832C648.145 160.728 647.873 159.864 647.329 159.24C646.801 158.616 646.057 158.304 645.097 158.304C644.153 158.304 643.409 158.616 642.865 159.24C642.321 159.864 642.049 160.728 642.049 161.832C642.049 162.92 642.321 163.776 642.865 164.4C643.409 165.024 644.153 165.336 645.097 165.336Z" fill="black"/>
<path d="M534.715 85.748C538.811 86.9 541.915 88.884 544.027 91.7C546.139 94.452 547.195 97.94 547.195 102.164C547.195 108.052 545.115 112.692 540.955 116.084C536.859 119.476 531.291 121.172 524.251 121.172C520.091 121.172 516.091 120.5 512.251 119.156C508.475 117.812 505.275 115.956 502.651 113.588C501.371 112.564 500.731 111.284 500.731 109.748C500.731 108.596 501.051 107.636 501.691 106.868C502.331 106.036 503.099 105.62 503.995 105.62C504.955 105.62 506.043 106.036 507.259 106.868C510.011 108.916 512.699 110.484 515.323 111.572C518.011 112.596 520.891 113.108 523.963 113.108C533.051 113.108 537.595 109.236 537.595 101.492C537.595 97.716 536.379 94.9 533.947 93.044C531.579 91.124 527.963 90.164 523.099 90.164H517.819C516.603 90.164 515.643 89.78 514.939 89.012C514.235 88.18 513.883 87.22 513.883 86.132C513.883 85.108 514.235 84.212 514.939 83.444C515.643 82.612 516.603 82.196 517.819 82.196H521.563C526.235 82.196 529.787 81.236 532.219 79.316C534.715 77.332 535.963 74.452 535.963 70.676C535.963 67.348 534.939 64.756 532.891 62.9C530.907 61.044 528.091 60.116 524.443 60.116C519.067 60.116 513.691 62.196 508.315 66.356C507.099 67.188 506.011 67.604 505.051 67.604C504.155 67.604 503.387 67.22 502.747 66.452C502.107 65.62 501.787 64.628 501.787 63.476C501.787 61.94 502.427 60.66 503.707 59.636C506.331 57.268 509.499 55.412 513.211 54.068C516.987 52.724 520.859 52.052 524.827 52.052C531.163 52.052 536.187 53.62 539.899 56.756C543.675 59.892 545.563 64.148 545.563 69.524C545.563 73.364 544.603 76.724 542.683 79.604C540.827 82.42 538.171 84.468 534.715 85.748Z" fill="#F9BDBD" fill-opacity="0.25"/>
<g clip-path="url(#clip1_25_69)">
<path d="M560.161 46.4516C560.161 58.2101 569.693 67.742 581.452 67.742V25.1613C569.693 25.1613 560.161 34.6932 560.161 46.4516Z" fill="#A8DCEC"/>
<path d="M647.258 65.8065H604.677V46.4517H647.258V65.8065Z" fill="#F9BDBD"/>
<path d="M639.516 32.9033H608.548V25.1613H639.516V32.9033Z" fill="#F7DEA6"/>
<path d="M649.194 38.7097H647.258V15.4839H554.355V0H544.677C539.342 0 535 4.34161 535 9.67742V83.2258C535 88.5616 539.342 92.9032 544.677 92.9032H596.935V114.194C596.935 117.394 599.541 120 602.742 120H649.194C652.394 120 655 117.394 655 114.194V44.5161C655 41.3152 652.394 38.7097 649.194 38.7097ZM538.871 9.67742C538.871 6.4765 541.476 3.87097 544.677 3.87097H550.484V73.5484H544.677C542.5 73.5484 540.489 74.2723 538.871 75.4876V9.67742ZM544.677 89.0323C541.476 89.0323 538.871 86.4267 538.871 83.2258C538.871 80.0249 541.476 77.4194 544.677 77.4194H554.355V19.3548H643.387V38.7097H603.342C600.092 29.5218 591.311 23.2258 581.452 23.2258C568.644 23.2258 558.226 33.6442 558.226 46.4516C558.226 59.2591 568.644 69.6774 581.452 69.6774C587.219 69.6774 592.716 67.5113 596.935 63.7377V89.0323H544.677ZM596.935 44.5161H583.387V27.2055C590.682 27.9426 597.004 32.787 599.58 39.6585C597.99 40.6952 596.935 42.4824 596.935 44.5161ZM579.516 65.7082C569.75 64.7338 562.097 56.4693 562.097 46.4516C562.097 36.434 569.75 28.1694 579.516 27.1951V65.7082ZM583.387 48.3871H596.935V58.022C593.676 62.3749 588.752 65.1468 583.387 65.6883V48.3871ZM651.129 114.194C651.129 115.26 650.26 116.129 649.194 116.129H602.742C601.676 116.129 600.806 115.26 600.806 114.194V44.5161C600.806 43.4501 601.676 42.5806 602.742 42.5806H649.194C650.26 42.5806 651.129 43.4501 651.129 44.5161V114.194Z" fill="black"/>
<path d="M635.645 112.258H647.258V100.645H635.645V112.258ZM639.516 104.516H643.387V108.387H639.516V104.516Z" fill="black"/>
<path d="M620.161 112.258H631.774V100.645H620.161V112.258ZM624.032 104.516H627.903V108.387H624.032V104.516Z" fill="black"/>
<path d="M604.677 112.258H616.29V100.645H604.677V112.258ZM608.548 104.516H612.419V108.387H608.548V104.516Z" fill="black"/>
<path d="M635.645 96.7742H647.258V85.1613H635.645V96.7742ZM639.516 89.0322H643.387V92.9032H639.516V89.0322Z" fill="black"/>
<path d="M620.161 96.7742H631.774V85.1613H620.161V96.7742ZM624.032 89.0322H627.903V92.9032H624.032V89.0322Z" fill="black"/>
<path d="M604.677 96.7742H616.29V85.1613H604.677V96.7742ZM608.548 89.0322H612.419V92.9032H608.548V89.0322Z" fill="black"/>
<path d="M635.645 81.2903H647.258V69.6774H635.645V81.2903ZM639.516 73.5484H643.387V77.4194H639.516V73.5484Z" fill="black"/>
<path d="M620.161 81.2903H631.774V69.6774H620.161V81.2903ZM624.032 73.5484H627.903V77.4194H624.032V73.5484Z" fill="black"/>
<path d="M604.677 81.2903H616.29V69.6774H604.677V81.2903ZM608.548 73.5484H612.419V77.4194H608.548V73.5484Z" fill="black"/>
<path d="M608.548 23.2258H639.516V27.0968H608.548V23.2258Z" fill="black"/>
<path d="M608.548 30.9677H639.516V34.8387H608.548V30.9677Z" fill="black"/>
<path d="M608.548 58.0645H643.387V61.9355H608.548V58.0645Z" fill="black"/>
</g>
<path d="M775.727 168.144C775.263 168.144 774.887 168.008 774.599 167.736C774.327 167.448 774.191 167.064 774.191 166.584V152.544C774.191 152.08 774.319 151.72 774.575 151.464C774.847 151.208 775.215 151.08 775.679 151.08H781.583C783.391 151.08 784.799 151.536 785.807 152.448C786.815 153.344 787.319 154.608 787.319 156.24C787.319 157.872 786.815 159.144 785.807 160.056C784.799 160.968 783.391 161.424 781.583 161.424H777.287V166.584C777.287 167.064 777.143 167.448 776.855 167.736C776.583 168.008 776.207 168.144 775.727 168.144ZM781.199 159.048C783.327 159.048 784.391 158.12 784.391 156.264C784.391 154.408 783.327 153.48 781.199 153.48H777.287V159.048H781.199ZM796.089 156.024C796.505 155.992 796.833 156.08 797.073 156.288C797.313 156.496 797.433 156.808 797.433 157.224C797.433 157.656 797.329 157.976 797.121 158.184C796.913 158.392 796.537 158.528 795.993 158.592L795.273 158.664C794.329 158.76 793.633 159.08 793.185 159.624C792.753 160.168 792.537 160.848 792.537 161.664V166.704C792.537 167.168 792.393 167.528 792.105 167.784C791.817 168.024 791.457 168.144 791.025 168.144C790.593 168.144 790.233 168.024 789.945 167.784C789.673 167.528 789.537 167.168 789.537 166.704V157.416C789.537 156.968 789.673 156.624 789.945 156.384C790.233 156.144 790.585 156.024 791.001 156.024C791.417 156.024 791.753 156.144 792.009 156.384C792.265 156.608 792.393 156.936 792.393 157.368V158.328C792.697 157.624 793.145 157.08 793.737 156.696C794.345 156.312 795.017 156.096 795.753 156.048L796.089 156.024ZM803.842 168.192C802.642 168.192 801.586 167.944 800.674 167.448C799.778 166.952 799.082 166.24 798.586 165.312C798.09 164.384 797.842 163.304 797.842 162.072C797.842 160.84 798.09 159.768 798.586 158.856C799.082 157.928 799.778 157.216 800.674 156.72C801.586 156.224 802.642 155.976 803.842 155.976C805.042 155.976 806.09 156.224 806.986 156.72C807.898 157.216 808.594 157.928 809.074 158.856C809.57 159.768 809.818 160.84 809.818 162.072C809.818 163.304 809.57 164.384 809.074 165.312C808.594 166.24 807.898 166.952 806.986 167.448C806.09 167.944 805.042 168.192 803.842 168.192ZM803.818 165.864C804.794 165.864 805.538 165.544 806.05 164.904C806.562 164.264 806.818 163.32 806.818 162.072C806.818 160.84 806.562 159.904 806.05 159.264C805.538 158.608 804.802 158.28 803.842 158.28C802.882 158.28 802.138 158.608 801.61 159.264C801.098 159.904 800.842 160.84 800.842 162.072C800.842 163.32 801.098 164.264 801.61 164.904C802.122 165.544 802.858 165.864 803.818 165.864ZM822.086 150.96C822.534 150.96 822.902 151.088 823.19 151.344C823.478 151.6 823.622 151.936 823.622 152.352V166.704C823.622 167.136 823.486 167.48 823.214 167.736C822.942 167.992 822.582 168.12 822.134 168.12C821.686 168.12 821.326 167.992 821.054 167.736C820.782 167.48 820.646 167.136 820.646 166.704V166.104C820.294 166.76 819.782 167.272 819.11 167.64C818.454 168.008 817.702 168.192 816.854 168.192C815.846 168.192 814.942 167.936 814.142 167.424C813.358 166.912 812.742 166.192 812.294 165.264C811.862 164.32 811.646 163.24 811.646 162.024C811.646 160.808 811.862 159.744 812.294 158.832C812.742 157.92 813.358 157.216 814.142 156.72C814.926 156.224 815.83 155.976 816.854 155.976C817.702 155.976 818.454 156.152 819.11 156.504C819.766 156.856 820.27 157.352 820.622 157.992V152.304C820.622 151.904 820.75 151.584 821.006 151.344C821.278 151.088 821.638 150.96 822.086 150.96ZM817.646 165.864C818.606 165.864 819.342 165.536 819.854 164.88C820.382 164.224 820.646 163.288 820.646 162.072C820.646 160.856 820.382 159.928 819.854 159.288C819.342 158.632 818.614 158.304 817.67 158.304C816.71 158.304 815.966 158.624 815.438 159.264C814.91 159.904 814.646 160.824 814.646 162.024C814.646 163.24 814.91 164.184 815.438 164.856C815.966 165.528 816.702 165.864 817.646 165.864ZM835.972 156.024C836.436 156.024 836.804 156.152 837.076 156.408C837.348 156.664 837.484 157.008 837.484 157.44V166.752C837.484 167.168 837.34 167.504 837.052 167.76C836.78 168.016 836.42 168.144 835.972 168.144C835.54 168.144 835.196 168.024 834.94 167.784C834.684 167.544 834.556 167.216 834.556 166.8V166.2C834.188 166.84 833.692 167.336 833.068 167.688C832.444 168.024 831.74 168.192 830.956 168.192C828.076 168.192 826.636 166.576 826.636 163.344V157.44C826.636 157.008 826.772 156.664 827.044 156.408C827.316 156.152 827.676 156.024 828.124 156.024C828.588 156.024 828.956 156.152 829.228 156.408C829.5 156.664 829.636 157.008 829.636 157.44V163.368C829.636 164.2 829.804 164.816 830.14 165.216C830.476 165.616 831.004 165.816 831.724 165.816C832.556 165.816 833.22 165.544 833.716 165C834.228 164.44 834.484 163.704 834.484 162.792V157.44C834.484 157.008 834.62 156.664 834.892 156.408C835.164 156.152 835.524 156.024 835.972 156.024ZM845.815 168.192C844.647 168.192 843.615 167.944 842.719 167.448C841.839 166.952 841.159 166.248 840.679 165.336C840.199 164.424 839.959 163.36 839.959 162.144C839.959 160.928 840.207 159.856 840.703 158.928C841.215 157.984 841.927 157.256 842.839 156.744C843.751 156.232 844.799 155.976 845.983 155.976C846.607 155.976 847.231 156.064 847.855 156.24C848.495 156.416 849.055 156.656 849.535 156.96C850.047 157.296 850.303 157.72 850.303 158.232C850.303 158.584 850.215 158.872 850.039 159.096C849.879 159.304 849.663 159.408 849.391 159.408C849.215 159.408 849.031 159.368 848.839 159.288C848.647 159.208 848.455 159.112 848.263 159C847.911 158.792 847.575 158.632 847.255 158.52C846.935 158.392 846.567 158.328 846.151 158.328C845.159 158.328 844.391 158.656 843.847 159.312C843.319 159.952 843.055 160.88 843.055 162.096C843.055 163.296 843.319 164.224 843.847 164.88C844.391 165.52 845.159 165.84 846.151 165.84C846.551 165.84 846.903 165.784 847.207 165.672C847.527 165.544 847.879 165.376 848.263 165.168C848.503 165.024 848.711 164.92 848.887 164.856C849.063 164.776 849.239 164.736 849.415 164.736C849.671 164.736 849.887 164.848 850.063 165.072C850.239 165.296 850.327 165.576 850.327 165.912C850.327 166.184 850.263 166.424 850.135 166.632C850.023 166.824 849.831 167 849.559 167.16C849.063 167.48 848.487 167.736 847.831 167.928C847.175 168.104 846.503 168.192 845.815 168.192ZM858.492 165.912C859.292 165.96 859.692 166.32 859.692 166.992C859.692 167.376 859.532 167.672 859.212 167.88C858.908 168.072 858.468 168.152 857.892 168.12L857.244 168.072C854.556 167.88 853.212 166.44 853.212 163.752V158.52H852.012C851.58 158.52 851.244 158.424 851.004 158.232C850.78 158.04 850.668 157.76 850.668 157.392C850.668 157.024 850.78 156.744 851.004 156.552C851.244 156.36 851.58 156.264 852.012 156.264H853.212V154.056C853.212 153.624 853.348 153.28 853.62 153.024C853.892 152.768 854.26 152.64 854.724 152.64C855.172 152.64 855.532 152.768 855.804 153.024C856.076 153.28 856.212 153.624 856.212 154.056V156.264H858.252C858.684 156.264 859.012 156.36 859.236 156.552C859.476 156.744 859.596 157.024 859.596 157.392C859.596 157.76 859.476 158.04 859.236 158.232C859.012 158.424 858.684 158.52 858.252 158.52H856.212V163.968C856.212 165.152 856.756 165.784 857.844 165.864L858.492 165.912ZM862.743 168.144C862.311 168.144 861.951 168.024 861.663 167.784C861.391 167.528 861.255 167.168 861.255 166.704V157.44C861.255 156.976 861.391 156.624 861.663 156.384C861.951 156.144 862.311 156.024 862.743 156.024C863.175 156.024 863.535 156.144 863.823 156.384C864.111 156.624 864.255 156.976 864.255 157.44V166.704C864.255 167.168 864.111 167.528 863.823 167.784C863.535 168.024 863.175 168.144 862.743 168.144ZM862.743 153.888C862.199 153.888 861.767 153.744 861.447 153.456C861.127 153.152 860.967 152.76 860.967 152.28C860.967 151.8 861.127 151.416 861.447 151.128C861.767 150.84 862.199 150.696 862.743 150.696C863.271 150.696 863.695 150.84 864.015 151.128C864.351 151.416 864.519 151.8 864.519 152.28C864.519 152.76 864.359 153.152 864.039 153.456C863.719 153.744 863.287 153.888 862.743 153.888ZM872.701 168.192C871.501 168.192 870.445 167.944 869.533 167.448C868.637 166.952 867.941 166.24 867.445 165.312C866.949 164.384 866.701 163.304 866.701 162.072C866.701 160.84 866.949 159.768 867.445 158.856C867.941 157.928 868.637 157.216 869.533 156.72C870.445 156.224 871.501 155.976 872.701 155.976C873.901 155.976 874.949 156.224 875.845 156.72C876.757 157.216 877.453 157.928 877.933 158.856C878.429 159.768 878.677 160.84 878.677 162.072C878.677 163.304 878.429 164.384 877.933 165.312C877.453 166.24 876.757 166.952 875.845 167.448C874.949 167.944 873.901 168.192 872.701 168.192ZM872.677 165.864C873.653 165.864 874.397 165.544 874.909 164.904C875.421 164.264 875.677 163.32 875.677 162.072C875.677 160.84 875.421 159.904 874.909 159.264C874.397 158.608 873.661 158.28 872.701 158.28C871.741 158.28 870.997 158.608 870.469 159.264C869.957 159.904 869.701 160.84 869.701 162.072C869.701 163.32 869.957 164.264 870.469 164.904C870.981 165.544 871.717 165.864 872.677 165.864ZM887.97 155.976C889.378 155.976 890.426 156.376 891.114 157.176C891.802 157.976 892.146 159.184 892.146 160.8V166.704C892.146 167.152 892.01 167.504 891.738 167.76C891.482 168.016 891.122 168.144 890.658 168.144C890.194 168.144 889.826 168.016 889.554 167.76C889.282 167.504 889.146 167.152 889.146 166.704V160.968C889.146 160.056 888.97 159.392 888.618 158.976C888.282 158.56 887.746 158.352 887.01 158.352C886.146 158.352 885.45 158.624 884.922 159.168C884.41 159.712 884.154 160.44 884.154 161.352V166.704C884.154 167.152 884.018 167.504 883.746 167.76C883.474 168.016 883.106 168.144 882.642 168.144C882.178 168.144 881.81 168.016 881.538 167.76C881.282 167.504 881.154 167.152 881.154 166.704V157.416C881.154 157 881.29 156.664 881.562 156.408C881.834 156.152 882.202 156.024 882.666 156.024C883.082 156.024 883.418 156.152 883.674 156.408C883.946 156.648 884.082 156.968 884.082 157.368V158.016C884.482 157.36 885.018 156.856 885.69 156.504C886.362 156.152 887.122 155.976 887.97 155.976Z" fill="black"/>
<path d="M785.003 97.612C788.139 97.612 789.707 98.924 789.707 101.548C789.707 104.172 788.139 105.484 785.003 105.484H778.859V114.988C778.859 116.588 778.411 117.836 777.515 118.732C776.619 119.564 775.435 119.98 773.963 119.98C772.555 119.98 771.403 119.564 770.507 118.732C769.611 117.836 769.163 116.588 769.163 114.988V105.484H742.187C740.779 105.484 739.691 105.1 738.923 104.332C738.155 103.564 737.771 102.572 737.771 101.356C737.771 100.076 738.187 98.828 739.019 97.612L769.643 53.548C770.667 52.076 772.107 51.34 773.963 51.34C775.307 51.34 776.459 51.788 777.419 52.684C778.379 53.516 778.859 54.732 778.859 56.332V97.612H785.003ZM769.163 97.612V67.66L748.427 97.612H769.163Z" fill="#F9BDBD" fill-opacity="0.25"/>
<path d="M878.428 26.4387L877.516 26.2374V23.2258C877.516 11.4677 867.984 1.93549 856.226 1.93549C846.641 1.93549 838.549 8.27419 835.88 16.9839L833.728 16.5058C831.368 15.9813 829.129 17.7774 829.129 20.1948C829.129 21.9658 830.36 23.4987 832.088 23.8839L865.895 31.3974L869.987 32.3071L876.788 33.8187C879.148 34.3413 881.387 32.5452 881.387 30.1277C881.387 28.3568 880.156 26.8239 878.428 26.4387Z" fill="#A8DCEC"/>
<path d="M790.419 56.129L794.19 48.3871L790.419 40.6452L799.079 40.0065L803.968 32.9032V1.93549H784.613V118.065H803.968V63.871L799.079 56.7677L790.419 56.129Z" fill="#F7DEA6"/>
<path d="M877.315 35.8103C877.417 35.8161 877.52 35.8432 877.621 35.8432C878.904 35.8432 880.158 35.4077 881.184 34.5852C882.544 33.4974 883.323 31.8716 883.323 30.1277C883.323 27.6426 881.755 25.5194 879.452 24.7374V23.2258C879.452 10.4187 869.033 0 856.226 0C846.651 0 838.079 5.95355 834.62 14.7213L834.146 14.6168C832.446 14.2374 830.691 14.6458 829.332 15.7374C827.972 16.8252 827.194 18.451 827.194 20.1948C827.194 22.68 828.761 24.8032 831.064 25.5852V32.9032C831.064 42.7839 837.275 51.2206 845.991 54.569C844.303 55.3645 842.697 56.3419 841.23 57.5168L838.127 60H824.61L823.626 55.4052C824.61 54.7026 825.258 53.5568 825.258 52.2581H833.757L832.801 49.411C831.597 45.7935 828.471 43.2368 824.784 42.6968C824.128 41.4813 822.86 40.6452 821.387 40.6452H813.645C812.219 40.6452 810.984 41.429 810.312 42.5806H805.903C803.768 42.5806 802.032 44.3168 802.032 46.4516V50.3226C802.032 52.4574 803.768 54.1935 805.903 54.1935H810.312C810.715 54.8826 811.315 55.4381 812.044 55.7729L813.74 62.5568C812.492 63.9329 811.71 65.7406 811.71 67.7419C811.71 71.0961 813.866 73.9297 816.854 75.0039L818.892 83.16C819.198 84.389 819.932 85.409 820.901 86.1077C819.961 87.9 819.452 89.88 819.452 91.9355V108.927L817.276 109.653C815.104 110.377 813.645 112.401 813.645 114.691C813.645 117.619 816.026 120 818.954 120H842.677V119.923C843.272 119.865 843.864 119.777 844.446 119.644L866.972 114.445L868.977 117.455C870.039 119.048 871.818 120 873.734 120C876.887 120 879.452 117.435 879.452 114.283V102.581C879.452 99.3794 876.846 96.7742 873.645 96.7742H867.788C869.017 95.1523 869.774 93.1548 869.774 90.9677V60H869.745C869.639 57.0581 867.949 54.5419 865.499 53.2316C871.849 49.7187 876.37 43.3161 877.315 35.8103ZM856.226 3.87097C866.898 3.87097 875.581 12.5535 875.581 23.2258V23.8239L838.458 15.5748C841.479 8.58 848.455 3.87097 856.226 3.87097ZM834.935 32.9032V26.4987L850.419 29.94V36.7742H854.29C855.359 36.7742 856.226 37.6413 856.226 38.7097C856.226 39.7781 855.359 40.6452 854.29 40.6452H850.419V51.8671C841.595 50.069 834.935 42.2497 834.935 32.9032ZM844.886 59.6342C846.38 58.6161 848.002 57.8071 849.705 57.2245L844.886 59.6342ZM817.185 60.3774L816.123 56.129H819.823L820.652 60H819.452C818.658 60 817.907 60.1548 817.185 60.3774ZM825.258 48.3871V46.7981C826.222 47.1213 827.101 47.6497 827.792 48.3871H825.258ZM813.645 44.5161H821.387L821.391 52.2581H813.645V44.5161ZM805.903 46.4516H809.774V50.3226H805.903V46.4516ZM819.452 63.871H843.417L847.288 71.6129H819.452C817.317 71.6129 815.581 69.8768 815.581 67.7419C815.581 65.6071 817.317 63.871 819.452 63.871ZM829.319 98.6284C827.929 100.848 827.194 103.411 827.194 106.032C827.194 106.835 827.277 107.619 827.408 108.387H823.323V91.9355C823.323 90.1606 823.859 88.4555 824.859 87.0039C826.607 86.6864 828.055 85.5019 828.724 83.9032C831.361 82.831 834.481 83.1387 836.869 84.7219V86.5432L829.319 98.6284ZM828.856 79.8116L827.929 75.4839H836.871V80.3574C834.343 79.3316 831.494 79.1516 828.856 79.8116ZM823.969 75.4839L825.227 81.3503C825.248 81.4452 825.258 81.5419 825.258 81.6368V81.9019C825.258 82.6316 824.664 83.2258 823.932 83.2258C823.324 83.2258 822.794 82.8116 822.645 82.2213L820.963 75.4839H823.969ZM840.742 75.4839H850.921L865.644 67.3026C865.735 67.2523 865.814 67.1884 865.903 67.1342V85.1613H840.742V75.4839ZM818.954 116.129C818.161 116.129 817.516 115.485 817.516 114.691C817.516 114.072 817.911 113.522 818.501 113.325L821.701 112.258H828.68C829.41 113.712 830.383 115.018 831.556 116.129H818.954ZM875.581 102.581V114.283C875.581 115.301 874.752 116.129 873.734 116.129C873.115 116.129 872.542 115.823 872.197 115.306L869.774 111.674V100.645H873.645C874.714 100.645 875.581 101.512 875.581 102.581ZM852.355 100.645H860.097H865.903V110.717L843.577 115.87C842.832 116.042 842.07 116.129 841.162 116.129C835.594 116.129 831.064 111.6 831.064 106.032C831.064 104.137 831.595 102.285 832.599 100.68L839.879 89.0323H865.903V90.9677C865.903 94.169 863.298 96.7742 860.097 96.7742H852.355H844.613V100.645H852.355ZM863.766 63.9194L851.248 70.8735L847.21 62.7987L859.671 56.5664C860.25 56.28 860.894 56.129 861.535 56.129H861.746C864.039 56.129 865.903 57.9929 865.903 60.2845C865.903 61.7961 865.084 63.1858 863.766 63.9194ZM854.29 52.2581V44.5161C857.492 44.5161 860.097 41.911 860.097 38.7097C860.097 35.5084 857.492 32.9032 854.29 32.9032V30.8013L865.475 33.2865L866.315 29.5065L832.508 21.9929C831.67 21.809 831.064 21.0523 831.064 20.1948C831.064 19.6335 831.316 19.1071 831.754 18.7568C832.191 18.4065 832.758 18.2729 833.308 18.3968L878.008 28.3297C878.846 28.5135 879.452 29.2703 879.452 30.1277C879.452 30.689 879.2 31.2155 878.763 31.5658C878.325 31.9161 877.756 32.0477 877.208 31.9258L870.407 30.4161L869.567 34.1961L873.514 35.0729C872.432 44.7252 864.227 52.2581 854.29 52.2581Z" fill="#333333"/>
<path d="M807.264 55.6703L803.968 60.4568L800.145 54.9058L793.41 54.4084L796.344 48.3871L793.41 42.3658L800.145 41.8684L803.968 36.3174L807.264 41.1058L810.45 38.909L805.903 32.3013V0H782.677V120H805.903V64.4729L810.452 57.8671L807.264 55.6703ZM786.548 116.129V3.87097H802.032V32.3013L798.01 38.1445L787.429 38.9245L792.037 48.3871L787.429 57.8497L798.01 58.6297L802.032 64.4729V116.129H786.548Z" fill="#333333"/>
<path d="M842.677 30.9677H838.806V34.8387H842.677V30.9677Z" fill="#333333"/>
<path d="M794.29 7.74194H790.419V23.2258H794.29V7.74194Z" fill="#333333"/>
<path d="M794.29 27.0968H790.419V30.9678H794.29V27.0968Z" fill="#333333"/>
<path d="M798.161 65.8065H794.29V81.2903H798.161V65.8065Z" fill="#333333"/>
<path d="M794.29 100.645H790.419V112.258H794.29V100.645Z" fill="#333333"/>
</g>
<defs>
<clipPath id="clip0_25_69">
<rect width="952" height="177" fill="white"/>
</clipPath>
<clipPath id="clip1_25_69">
<rect width="120" height="120" fill="white" transform="translate(535)"/>
</clipPath>
</defs>
</svg>
