<svg width="82" height="120" viewBox="0 0 82 120" fill="none" xmlns="http://www.w3.org/2000/svg">
<path d="M75.3148 35.8103C75.4174 35.8161 75.52 35.8432 75.6206 35.8432C76.9038 35.8432 78.158 35.4077 79.1838 34.5852C80.5445 33.4974 81.3226 31.8716 81.3226 30.1277C81.3226 27.6426 79.7548 25.5194 77.4516 24.7374V23.2258C77.4516 10.4187 67.0329 0 54.2258 0C44.6509 0 36.0787 5.95355 32.62 14.7213L32.1458 14.6168C30.4464 14.2374 28.6909 14.6458 27.3322 15.7374C25.9716 16.8252 25.1935 18.451 25.1935 20.1948C25.1935 22.68 26.7613 24.8032 29.0645 25.5852V32.9032C29.0645 42.7839 35.2755 51.2206 43.9909 54.569C42.3032 55.3645 40.6967 56.3419 39.2296 57.5168L36.1271 60H22.6096L21.6264 55.4052C22.6096 54.7026 23.258 53.5568 23.258 52.2581H31.7567L30.8006 49.411C29.5967 45.7935 26.4709 43.2368 22.7838 42.6968C22.1277 41.4813 20.86 40.6452 19.3871 40.6452H11.6451C10.2187 40.6452 8.98384 41.429 8.31223 42.5806H3.90319C1.76836 42.5806 0.0322266 44.3168 0.0322266 46.4516V50.3226C0.0322266 52.4574 1.76836 54.1935 3.90319 54.1935H8.31223C8.71481 54.8826 9.31481 55.4381 10.0445 55.7729L11.74 62.5568C10.4916 63.9329 9.70965 65.7406 9.70965 67.7419C9.70965 71.0961 11.8658 73.9297 14.8542 75.0039L16.8922 83.16C17.198 84.389 17.9316 85.409 18.9013 86.1077C17.9606 87.9 17.4516 89.88 17.4516 91.9355V108.927L15.2761 109.653C13.1045 110.377 11.6451 112.401 11.6451 114.691C11.6451 117.619 14.0258 120 16.9542 120H40.6774V119.923C41.2716 119.865 41.8638 119.777 42.4464 119.644L64.9716 114.445L66.9768 117.455C68.0393 119.048 69.818 120 71.7342 120C74.8871 120 77.4516 117.435 77.4516 114.283V102.581C77.4516 99.3793 74.8464 96.7742 71.6451 96.7742H65.7884C67.0174 95.1523 67.7742 93.1548 67.7742 90.9677V60H67.7451C67.6387 57.0581 65.949 54.5419 63.4987 53.2316C69.849 49.7187 74.3703 43.3161 75.3148 35.8103ZM54.2258 3.87097C64.898 3.87097 73.5806 12.5535 73.5806 23.2258V23.8239L36.458 15.5748C39.4793 8.58 46.4548 3.87097 54.2258 3.87097ZM32.9355 32.9032V26.4987L48.4193 29.94V36.7742H52.2903C53.3587 36.7742 54.2258 37.6413 54.2258 38.7097C54.2258 39.7781 53.3587 40.6452 52.2903 40.6452H48.4193V51.8671C39.5955 50.069 32.9355 42.2497 32.9355 32.9032ZM42.8858 59.6342C44.38 58.6161 46.0019 57.8071 47.7051 57.2245L42.8858 59.6342ZM15.1851 60.3774L14.1226 56.129H17.8232L18.6516 60H17.4516C16.658 60 15.9071 60.1548 15.1851 60.3774ZM23.258 48.3871V46.7981C24.2219 47.1213 25.1006 47.6497 25.7916 48.3871H23.258ZM11.6451 44.5161H19.3871L19.3909 52.2581H11.6451V44.5161ZM3.90319 46.4516H7.77416V50.3226H3.90319V46.4516ZM17.4516 63.871H41.4167L45.2877 71.6129H17.4516C15.3167 71.6129 13.5806 69.8768 13.5806 67.7419C13.5806 65.6071 15.3167 63.871 17.4516 63.871ZM27.3187 98.6284C25.929 100.848 25.1935 103.411 25.1935 106.032C25.1935 106.835 25.2767 107.619 25.4084 108.387H21.3226V91.9355C21.3226 90.1606 21.8587 88.4555 22.8593 87.0039C24.6071 86.6864 26.0548 85.5019 26.7245 83.9032C29.3606 82.831 32.4806 83.1387 34.869 84.7219V86.5432L27.3187 98.6284ZM26.8561 79.8116L25.929 75.4839H34.8709V80.3574C32.3432 79.3316 29.4942 79.1516 26.8561 79.8116ZM21.969 75.4839L23.2271 81.3503C23.2484 81.4452 23.258 81.5419 23.258 81.6368V81.9019C23.258 82.6316 22.6638 83.2258 21.9322 83.2258C21.3245 83.2258 20.7942 82.8116 20.6451 82.2213L18.9632 75.4839H21.969ZM38.7419 75.4839H48.9206L63.6438 67.3026C63.7348 67.2523 63.8142 67.1884 63.9032 67.1342V85.1613H38.7419V75.4839ZM16.9542 116.129C16.1606 116.129 15.5161 115.485 15.5161 114.691C15.5161 114.072 15.9109 113.522 16.5013 113.325L19.7006 112.258H26.68C27.4096 113.712 28.3832 115.018 29.5561 116.129H16.9542ZM73.5806 102.581V114.283C73.5806 115.301 72.7522 116.129 71.7342 116.129C71.1148 116.129 70.5419 115.823 70.1974 115.306L67.7742 111.674V100.645H71.6451C72.7135 100.645 73.5806 101.512 73.5806 102.581ZM50.3548 100.645H58.0967H63.9032V110.717L41.5774 115.87C40.8322 116.042 40.0696 116.129 39.1619 116.129C33.5935 116.129 29.0645 111.6 29.0645 106.032C29.0645 104.137 29.5948 102.285 30.5993 100.68L37.8787 89.0323H63.9032V90.9677C63.9032 94.169 61.298 96.7742 58.0967 96.7742H50.3548H42.6129V100.645H50.3548ZM61.7664 63.9194L49.2477 70.8735L45.2103 62.7987L57.6709 56.5664C58.2496 56.28 58.8942 56.129 59.5348 56.129H59.7458C62.0393 56.129 63.9032 57.9929 63.9032 60.2845C63.9032 61.7961 63.0845 63.1858 61.7664 63.9194ZM52.2903 52.2581V44.5161C55.4916 44.5161 58.0967 41.911 58.0967 38.7097C58.0967 35.5084 55.4916 32.9032 52.2903 32.9032V30.8013L63.4755 33.2864L64.3155 29.5065L30.5084 21.9929C29.6703 21.809 29.0645 21.0523 29.0645 20.1948C29.0645 19.6335 29.3161 19.1071 29.7535 18.7568C30.1909 18.4065 30.758 18.2729 31.3077 18.3968L76.0077 28.3297C76.8458 28.5135 77.4516 29.2703 77.4516 30.1277C77.4516 30.689 77.2 31.2155 76.7626 31.5658C76.3251 31.9161 75.7561 32.0477 75.2084 31.9258L68.4071 30.4161L67.5671 34.1961L71.5135 35.0729C70.4316 44.7252 62.2271 52.2581 52.2903 52.2581Z" fill="#333333"/>
</svg>
