<svg width="120" height="98" viewBox="0 0 120 98" fill="none" xmlns="http://www.w3.org/2000/svg">
<path d="M114.193 0.612732H5.80657C2.60536 0.612732 0 3.21809 0 6.4193V78.032C0 81.2332 2.60536 83.8386 5.80657 83.8386H38.7096V93.5162H29.032V97.3873H90.9676V93.5162H81.2903V83.8386H114.193C117.395 83.8386 120 81.2332 120 78.032V6.4193C120 3.21809 117.395 0.612732 114.193 0.612732ZM5.80657 4.48378H114.194C115.262 4.48378 116.129 5.35277 116.129 6.4193V66.4193H3.87105V6.4193C3.87105 5.35277 4.73801 4.48378 5.80657 4.48378ZM77.4193 93.5162H42.5807V83.8386H77.4193V93.5162ZM114.193 79.9676H5.80657C4.73801 79.9676 3.87105 79.0986 3.87105 78.032V70.2903H116.129V78.0324C116.129 79.0986 115.262 79.9676 114.193 79.9676Z" fill="#333333"/>
</svg>
